<svg width="20" height="21" viewBox="0 0 20 21" fill="none" xmlns="http://www.w3.org/2000/svg">
<g clip-path="url(#clip0_102_26)">
<path fill-rule="evenodd" clip-rule="evenodd" d="M0 10.5558C0 15.5275 3.61083 19.6617 8.33333 20.5V13.2775H5.83333V10.5H8.33333V8.2775C8.33333 5.7775 9.94417 4.38917 12.2225 4.38917C12.9442 4.38917 13.7225 4.5 14.4442 4.61083V7.16667H13.1667C11.9442 7.16667 11.6667 7.7775 11.6667 8.55583V10.5H14.3333L13.8892 13.2775H11.6667V20.5C16.3892 19.6617 20 15.5283 20 10.5558C20 5.025 15.5 0.5 10 0.5C4.5 0.5 0 5.025 0 10.5558Z" fill="#4267B2"/>
</g>
<defs>
<clipPath id="clip0_102_26">
<rect width="20" height="20" fill="white" transform="translate(0 0.5)"/>
</clipPath>
</defs>
</svg>
