<svg width="20" height="21" viewBox="0 0 20 21" fill="none" xmlns="http://www.w3.org/2000/svg">
<path d="M18.1712 8.86775H17.5V8.83317H9.99996V12.1665H14.7095C14.0225 14.1069 12.1762 15.4998 9.99996 15.4998C7.23871 15.4998 4.99996 13.2611 4.99996 10.4998C4.99996 7.73859 7.23871 5.49984 9.99996 5.49984C11.2745 5.49984 12.4341 5.98067 13.317 6.76609L15.6741 4.409C14.1858 3.02192 12.195 2.1665 9.99996 2.1665C5.39788 2.1665 1.66663 5.89775 1.66663 10.4998C1.66663 15.1019 5.39788 18.8332 9.99996 18.8332C14.602 18.8332 18.3333 15.1019 18.3333 10.4998C18.3333 9.94109 18.2758 9.39567 18.1712 8.86775Z" fill="#FFC107"/>
<path d="M2.62756 6.62109L5.36548 8.629C6.10631 6.79484 7.90048 5.49984 10.0001 5.49984C11.2746 5.49984 12.4342 5.98067 13.3171 6.76609L15.6742 4.409C14.1859 3.02192 12.1951 2.1665 10.0001 2.1665C6.79923 2.1665 4.0234 3.97359 2.62756 6.62109Z" fill="#FF3D00"/>
<path d="M10 18.8331C12.1525 18.8331 14.1084 18.0094 15.5871 16.6698L13.008 14.4873C12.1432 15.145 11.0865 15.5007 10 15.4998C7.83255 15.4998 5.99213 14.1177 5.2988 12.189L2.5813 14.2827C3.96047 16.9815 6.7613 18.8331 10 18.8331Z" fill="#4CAF50"/>
<path d="M18.1713 8.86808H17.5V8.8335H10V12.1668H14.7096C14.3809 13.0903 13.7889 13.8973 13.0067 14.4881L13.0079 14.4872L15.5871 16.6697C15.4046 16.8356 18.3333 14.6668 18.3333 10.5002C18.3333 9.94141 18.2758 9.396 18.1713 8.86808Z" fill="#1976D2"/>
</svg>
